# xmcd
#
# Track frame offsets:
#	150
#	11430
#	22092
#	35502
#	47685
#	61430
#	72337
#	84180
#	101120
#	112187
#	124445
#	135567
#	146965
#	156207
#
# Disc length: 2272
#
# Revision: 1
# Processed by: cddbd v1.5.1PL0 Copyright (c) Steve Scherf et al.
# Submitted via: AltoMP3_Maker 3.0
# Normalized: r0:DSETVAR1,TDELIM( - )
#
DISCID=cc08de0e
DTITLE=Various Artist - Country Collection - Crazy
DYEAR=1900
DGENRE=
TTITLE0=Donna Fargo - The happiest girl in whole USA
TTITLE1=Charlie Rich - There won't be anymore
TTITLE2=Lynn Anderson - Top of the world
TTITLE3=Freddy Fender - Wasted days and wasted nights
TTITLE4=The Jordanaires - Sweet dreams
TTITLE5=Loretta Lynn - Crazy
TTITLE6=Waylon Jennings - Don't think twice
TTITLE7=Kenny Rogers and The First Edition - Something's burning
TTITLE8=Don Gibson - Oh lonesome me
TTITLE9=Don Williams - There's never been a time
TTITLE10=Charlie McCoy - Orange blossom special
TTITLE11=Skeeter Davis - Gonna get along without you now
TTITLE12=Willie Nelson - One step beyond
TTITLE13=La Toya Jackson - Burnin' love
EXTD=
EXTT0=
EXTT1=
EXTT2=
EXTT3=
EXTT4=
EXTT5=
EXTT6=
EXTT7=
EXTT8=
EXTT9=
EXTT10=
EXTT11=
EXTT12=
EXTT13=
PLAYORDER=
